<svg width="48" height="50" viewBox="0 0 48 50" fill="none" xmlns="http://www.w3.org/2000/svg">
<line x1="0.406008" y1="16.7082" x2="23.7514" y2="49.1888" stroke="black"/>
<line x1="23.406" y1="0.708182" x2="46.7514" y2="33.1888" stroke="black"/>
<path d="M0.5 17L14.5 12L23.5 1M46.5 33.5L37.5 45.5L23.5 49" stroke="black" stroke-linecap="round" stroke-linejoin="round"/>
<rect x="7.65182" y="19.7554" width="3.66747" height="3.08084" transform="rotate(-35 7.65182 19.7554)" stroke="black" stroke-width="0.5"/>
<rect x="10.6851" y="23.8379" width="3.66747" height="3.08084" transform="rotate(-35 10.6851 23.8379)" stroke="black" stroke-width="0.5"/>
<rect x="13.7185" y="27.9205" width="3.66747" height="3.08084" transform="rotate(-35 13.7185 27.9205)" stroke="black" stroke-width="0.5"/>
<rect x="16.7518" y="32.003" width="3.66747" height="3.08084" transform="rotate(-35 16.7518 32.003)" stroke="black" stroke-width="0.5"/>
<line x1="11.7226" y1="18.584" x2="20.7227" y2="12.584" stroke="black"/>
<line x1="11.7226" y1="18.584" x2="20.7227" y2="12.584" stroke="black"/>
<line x1="11.7226" y1="18.584" x2="20.7227" y2="12.584" stroke="black"/>
<line x1="14.7226" y1="22.584" x2="23.7227" y2="16.584" stroke="black"/>
<line x1="17.7226" y1="26.584" x2="26.7227" y2="20.584" stroke="black"/>
<line x1="20.7226" y1="30.584" x2="29.7227" y2="24.584" stroke="black"/>
<line x1="21.7043" y1="37.5968" x2="36.7043" y2="26.5968" stroke="black"/>
<line x1="23.7043" y1="39.5968" x2="38.7043" y2="28.5968" stroke="black"/>
<line x1="25.7043" y1="41.5968" x2="40.7043" y2="30.5968" stroke="black"/>
</svg>
